# xmcd
#
# Track frame offsets:
#	150
#	18858
#	37261
#	58559
#	81152
#	96202
#	112186
#	128143
#	140452
#	157688
#	175906
#	189075
#	202687
#	222316
#	239266
#	253523
#	269798
#	289505
#	303187
#	319945
#
# Disc length: 4446 seconds
#
# Revision: 2
# Processed by: cddbd v1.5.2PL0 Copyright (c) Steve Scherf et al.
# Submitted via: audiograbber 1.83.01
#
DISCID=16115c14
DTITLE=Pussycat - The Golden Years Of Dutch Pop Music [CD 2)
DYEAR=2015
DGENRE=Pop
TTITLE0=Doin' La Bamba
TTITLE1=On The Corner Of My Life
TTITLE2=Then The Music Stopped
TTITLE3=Cha Cha Me Baby
TTITLE4=Une chambre pour la nuit
TTITLE5=I Don't Wanna Rock 'n Roll
TTITLE6=Teenage Queenie
TTITLE7=Who's Gonna Love You
TTITLE8=Take A Look At Me
TTITLE9=If You Go
TTITLE10=Lovers Of A Kind
TTITLE11=Closer To You
TTITLE12=Chicano
TTITLE13=It's Over
TTITLE14=Chez Louis
TTITLE15=Say One Word
TTITLE16=Roll On Sweet Mississippi
TTITLE17=I Can't Get Over You
TTITLE18=Light Of A Gipsy
TTITLE19=You
EXTD=
EXTT0=
EXTT1=
EXTT2=
EXTT3=
EXTT4=
EXTT5=
EXTT6=
EXTT7=
EXTT8=
EXTT9=
EXTT10=
EXTT11=
EXTT12=
EXTT13=
EXTT14=
EXTT15=
EXTT16=
EXTT17=
EXTT18=
EXTT19=
PLAYORDER=
